<svg xmlns="http://www.w3.org/2000/svg" viewBox="0 0 348.27 95.48"><defs><style>.cls-1{fill:#034;}</style></defs><title>secretaria-educacao</title><g id="Camada_2" data-name="Camada 2"><g id="Camada_1-2" data-name="Camada 1"><g id="secretaria-educacao"><path class="cls-1" d="M1.44,11.3v7H0V1.18H5.81a7.47,7.47,0,0,1,2.48.38,5,5,0,0,1,1.8,1,4.4,4.4,0,0,1,1.1,1.61,5.68,5.68,0,0,1,.36,2.06,5.85,5.85,0,0,1-.36,2.12A4.15,4.15,0,0,1,10.1,10a4.88,4.88,0,0,1-1.8,1,8.52,8.52,0,0,1-2.49.34Zm0-1.22H5.81a6,6,0,0,0,2-.29A3.55,3.55,0,0,0,9.11,9a3.27,3.27,0,0,0,.76-1.2,4.48,4.48,0,0,0,.24-1.49,4.61,4.61,0,0,0-.24-1.49,3.43,3.43,0,0,0-.76-1.24,3.63,3.63,0,0,0-1.34-.85,5.72,5.72,0,0,0-2-.31H1.44Z"/><path class="cls-1" d="M19.64,6.76a5.8,5.8,0,0,0-.95-.08,3.71,3.71,0,0,0-1.29.21,3.45,3.45,0,0,0-1,.59,3.74,3.74,0,0,0-.73.9,5.23,5.23,0,0,0-.48,1.16v8.71H13.78V5.57h1.37l0,2a4.25,4.25,0,0,1,1.4-1.64,3.73,3.73,0,0,1,2.18-.61,3.15,3.15,0,0,1,.52,0,2.27,2.27,0,0,1,.4.1Z"/><path class="cls-1" d="M25.87,18.48A5.58,5.58,0,0,1,23.58,18a5.51,5.51,0,0,1-1.8-1.29,6.21,6.21,0,0,1-1.18-2,7.17,7.17,0,0,1-.42-2.5v-.5a7.69,7.69,0,0,1,.44-2.66,6.44,6.44,0,0,1,1.19-2,5.41,5.41,0,0,1,1.73-1.29,4.74,4.74,0,0,1,2.07-.46,5,5,0,0,1,2.14.44A4.37,4.37,0,0,1,29.33,7a5.48,5.48,0,0,1,1,1.84,8.2,8.2,0,0,1,.32,2.33V12h-9v.27a6,6,0,0,0,.31,2,4.87,4.87,0,0,0,.89,1.6,4.11,4.11,0,0,0,1.38,1.07,3.83,3.83,0,0,0,1.76.4,4.62,4.62,0,0,0,2-.41,4.39,4.39,0,0,0,1.57-1.32l.87.67a5.43,5.43,0,0,1-.73.87,4.59,4.59,0,0,1-1,.71,4.78,4.78,0,0,1-1.25.48A6.08,6.08,0,0,1,25.87,18.48ZM25.61,6.53a3.63,3.63,0,0,0-1.48.3,3.77,3.77,0,0,0-1.2.87,4.5,4.5,0,0,0-.85,1.35,6.33,6.33,0,0,0-.46,1.75h7.61v-.15A5.71,5.71,0,0,0,29,9.11a4.14,4.14,0,0,0-.68-1.32,3.46,3.46,0,0,0-1.12-.92A3.38,3.38,0,0,0,25.61,6.53Z"/><path class="cls-1" d="M33.69,18.25V6.71h-2.1V5.57h2.1V4A5.3,5.3,0,0,1,34,2.29,3.42,3.42,0,0,1,34.69,1,3.4,3.4,0,0,1,35.87.26,4.49,4.49,0,0,1,37.44,0a6.27,6.27,0,0,1,.74.05,4.53,4.53,0,0,1,.75.15l-.11,1.17a3.83,3.83,0,0,0-.59-.1,4.7,4.7,0,0,0-.68,0A2.3,2.3,0,0,0,35.74,2,3,3,0,0,0,35.1,4V5.57h3V6.71h-3V18.25Z"/><path class="cls-1" d="M44.58,18.48A5.56,5.56,0,0,1,42.3,18a5.3,5.3,0,0,1-1.8-1.29,6,6,0,0,1-1.18-2,7.17,7.17,0,0,1-.42-2.5v-.5a7.69,7.69,0,0,1,.44-2.66,6.25,6.25,0,0,1,1.19-2,5.41,5.41,0,0,1,1.73-1.29,4.74,4.74,0,0,1,2.07-.46,5,5,0,0,1,2.14.44A4.37,4.37,0,0,1,48.05,7a5.29,5.29,0,0,1,1,1.84,7.86,7.86,0,0,1,.33,2.33V12h-9v.27a6,6,0,0,0,.31,2,4.87,4.87,0,0,0,.89,1.6,4.18,4.18,0,0,0,1.37,1.07,3.9,3.9,0,0,0,1.77.4,4.62,4.62,0,0,0,2-.41,4.36,4.36,0,0,0,1.56-1.32l.88.67a5.43,5.43,0,0,1-.73.87,4.41,4.41,0,0,1-1,.71,4.58,4.58,0,0,1-1.24.48A6.11,6.11,0,0,1,44.58,18.48ZM44.33,6.53a3.63,3.63,0,0,0-1.48.3,3.77,3.77,0,0,0-1.2.87,4.73,4.73,0,0,0-.86,1.35,6.7,6.7,0,0,0-.45,1.75H48v-.15a5.71,5.71,0,0,0-.26-1.54A4.16,4.16,0,0,0,47,7.79a3.42,3.42,0,0,0-1.11-.92A3.38,3.38,0,0,0,44.33,6.53Z"/><path class="cls-1" d="M51.32,1.9a1,1,0,0,1,.26-.68.91.91,0,0,1,.7-.27,1,1,0,0,1,.71.27.93.93,0,0,1,.26.68.91.91,0,0,1-.26.67,1,1,0,0,1-.71.27.91.91,0,0,1-.7-.27A1,1,0,0,1,51.32,1.9ZM53,18.25h-1.4V5.57H53Z"/><path class="cls-1" d="M58.29,2.32V5.57h2.62V6.71H58.29v8.45a3.53,3.53,0,0,0,.13,1.08,1.48,1.48,0,0,0,.37.63,1.1,1.1,0,0,0,.52.3,2.59,2.59,0,0,0,.63.08,4.08,4.08,0,0,0,.61,0l.53-.08.06,1.15a3.9,3.9,0,0,1-.68.15,7.67,7.67,0,0,1-.82.05,3.59,3.59,0,0,1-1.11-.16,1.89,1.89,0,0,1-.87-.54,2.49,2.49,0,0,1-.57-1,5.1,5.1,0,0,1-.21-1.59V6.71H54.55V5.57h2.33V2.32Z"/><path class="cls-1" d="M71.3,16.64A3.93,3.93,0,0,1,69.72,18a5.47,5.47,0,0,1-2.46.49,5.37,5.37,0,0,1-1.7-.26,3.35,3.35,0,0,1-1.31-.84,3.82,3.82,0,0,1-.85-1.48,7.16,7.16,0,0,1-.3-2.21V5.57h1.4v8.14a5.17,5.17,0,0,0,.23,1.7,3,3,0,0,0,.63,1.09,2.42,2.42,0,0,0,.93.59,3.86,3.86,0,0,0,1.13.17,5.14,5.14,0,0,0,1.49-.19A3.73,3.73,0,0,0,70,16.55a3.24,3.24,0,0,0,.77-.8,4.09,4.09,0,0,0,.48-1V5.57h1.41V18.25H71.33Z"/><path class="cls-1" d="M81.52,6.76a5.7,5.7,0,0,0-1-.08,3.71,3.71,0,0,0-1.29.21,3.27,3.27,0,0,0-1,.59,3.56,3.56,0,0,0-.74.9,5.23,5.23,0,0,0-.48,1.16v8.71H75.66V5.57H77l0,2a4.25,4.25,0,0,1,1.4-1.64,3.73,3.73,0,0,1,2.18-.61,3.27,3.27,0,0,1,.53,0,2.36,2.36,0,0,1,.39.1Z"/><path class="cls-1" d="M90.6,18.25a3.77,3.77,0,0,1-.18-.81,7.61,7.61,0,0,1-.09-1,4.93,4.93,0,0,1-.75.77,5.14,5.14,0,0,1-1,.63,5.66,5.66,0,0,1-1.18.44,5.58,5.58,0,0,1-1.39.16,5,5,0,0,1-1.69-.27,3.76,3.76,0,0,1-1.28-.75,3.41,3.41,0,0,1-1.12-2.58,3.57,3.57,0,0,1,.39-1.67A3.63,3.63,0,0,1,83.48,12a5.48,5.48,0,0,1,1.83-.8,9.78,9.78,0,0,1,2.4-.27h2.61V9.43a2.79,2.79,0,0,0-.84-2.14A3.53,3.53,0,0,0,87,6.52a4.56,4.56,0,0,0-1.36.19,3.51,3.51,0,0,0-1.07.56,2.56,2.56,0,0,0-.7.81,2,2,0,0,0-.25,1H82.24a3,3,0,0,1,.35-1.38,3.87,3.87,0,0,1,1-1.19,5.05,5.05,0,0,1,1.54-.84,6,6,0,0,1,2-.32A6.38,6.38,0,0,1,89,5.59a4.08,4.08,0,0,1,1.46.77,3.61,3.61,0,0,1,1,1.29,4.43,4.43,0,0,1,.34,1.81V15.6c0,.22,0,.44,0,.68s0,.46.08.68.08.42.12.62a3,3,0,0,0,.17.53v.14Zm-4.41-1A4.85,4.85,0,0,0,87.6,17a4.09,4.09,0,0,0,1.18-.53,3.87,3.87,0,0,0,.91-.79,4.09,4.09,0,0,0,.63-1V12H87.91a8.52,8.52,0,0,0-1.92.2,4.76,4.76,0,0,0-1.44.55,2.74,2.74,0,0,0-.9.89,2.33,2.33,0,0,0-.31,1.18,2.39,2.39,0,0,0,.2,1,2.31,2.31,0,0,0,.57.79A2.66,2.66,0,0,0,85,17,3.36,3.36,0,0,0,86.19,17.24Z"/><path class="cls-1" d="M99.38,11.79a9.61,9.61,0,0,1,.34-2.67,6.08,6.08,0,0,1,1-2,4.36,4.36,0,0,1,1.54-1.3,4.45,4.45,0,0,1,2-.46,4.67,4.67,0,0,1,2.31.54,4.56,4.56,0,0,1,1.6,1.49V.25h1.39v18h-1.31l-.06-1.69A4.46,4.46,0,0,1,106.6,18a5,5,0,0,1-2.35.51,4.33,4.33,0,0,1-2-.47,4.46,4.46,0,0,1-1.54-1.33,6.08,6.08,0,0,1-1-2A9.32,9.32,0,0,1,99.38,12Zm1.42.25A8.92,8.92,0,0,0,101,14.1a5.08,5.08,0,0,0,.68,1.66,3.17,3.17,0,0,0,2.81,1.5,4.4,4.4,0,0,0,1.3-.17,3.73,3.73,0,0,0,1-.47,3.62,3.62,0,0,0,.78-.73,5.35,5.35,0,0,0,.57-.91V9a4.93,4.93,0,0,0-.52-.92,3.3,3.3,0,0,0-.75-.79,3.38,3.38,0,0,0-1-.55,4,4,0,0,0-1.36-.21,3.31,3.31,0,0,0-1.67.41,3.21,3.21,0,0,0-1.16,1.1A5.14,5.14,0,0,0,101,9.73a9,9,0,0,0-.22,2.06Z"/><path class="cls-1" d="M111.83,11.72a7.85,7.85,0,0,1,.41-2.56,6,6,0,0,1,1.14-2,5.24,5.24,0,0,1,1.78-1.33,5.47,5.47,0,0,1,2.32-.48,5.58,5.58,0,0,1,2.35.48,5.37,5.37,0,0,1,1.79,1.33,5.94,5.94,0,0,1,1.13,2,7.85,7.85,0,0,1,.4,2.56v.39a7.75,7.75,0,0,1-.4,2.55,5.85,5.85,0,0,1-1.13,2A5.24,5.24,0,0,1,119.83,18a6,6,0,0,1-4.66,0,5.34,5.34,0,0,1-1.79-1.33,5.87,5.87,0,0,1-1.14-2,7.75,7.75,0,0,1-.41-2.55Zm1.41.39a6.82,6.82,0,0,0,.28,2,5.1,5.1,0,0,0,.82,1.65,4.06,4.06,0,0,0,1.33,1.14,3.92,3.92,0,0,0,1.83.42,3.86,3.86,0,0,0,1.83-.42,4.16,4.16,0,0,0,1.33-1.14,5.31,5.31,0,0,0,.82-1.65,7.18,7.18,0,0,0,.28-2v-.39a7,7,0,0,0-.28-2,5.37,5.37,0,0,0-.82-1.66A3.92,3.92,0,0,0,119.31,7a3.75,3.75,0,0,0-1.83-.43,3.7,3.7,0,0,0-1.81.43,4,4,0,0,0-1.33,1.14,5.16,5.16,0,0,0-.82,1.66,6.68,6.68,0,0,0-.28,2Z"/><path class="cls-1" d="M132.78,1.18l6.29,15.06,6.31-15.06h1.93V18.25h-1.44V10.79L146,3.2l-6.35,15.05h-1.11l-6.33-15,.12,7.53v7.46h-1.44V1.18Z"/><path class="cls-1" d="M158.79,16.64A4,4,0,0,1,157.2,18a5.47,5.47,0,0,1-2.46.49,5.37,5.37,0,0,1-1.7-.26,3.43,3.43,0,0,1-1.31-.84,4,4,0,0,1-.85-1.48,7.16,7.16,0,0,1-.3-2.21V5.57H152v8.14a5.45,5.45,0,0,0,.23,1.7,2.89,2.89,0,0,0,.64,1.09,2.28,2.28,0,0,0,.93.59,3.77,3.77,0,0,0,1.13.17,5.18,5.18,0,0,0,1.49-.19,3.56,3.56,0,0,0,1.11-.52,3.24,3.24,0,0,0,.77-.8,3.48,3.48,0,0,0,.48-1V5.57h1.41V18.25h-1.36Z"/><path class="cls-1" d="M164.48,5.57l.05,2.16a5.92,5.92,0,0,1,.75-1,4.4,4.4,0,0,1,1-.76,4.57,4.57,0,0,1,2.42-.66,5.28,5.28,0,0,1,1.7.26,3,3,0,0,1,1.27.82,3.69,3.69,0,0,1,.8,1.45,7.36,7.36,0,0,1,.28,2.14v8.25h-1.4V10a5.5,5.5,0,0,0-.21-1.64,2.61,2.61,0,0,0-.6-1,2.11,2.11,0,0,0-.94-.57,4.32,4.32,0,0,0-1.24-.17A3.51,3.51,0,0,0,167,6.8a4,4,0,0,0-1.08.68,4.35,4.35,0,0,0-.8,1,5.47,5.47,0,0,0-.54,1.12v8.69h-1.4V5.57Z"/><path class="cls-1" d="M175.57,1.9a1,1,0,0,1,.26-.68,1.06,1.06,0,0,1,1.41,0,.94.94,0,0,1,.27.68.92.92,0,0,1-.27.67,1.06,1.06,0,0,1-1.41,0A1,1,0,0,1,175.57,1.9Zm1.65,16.35h-1.4V5.57h1.4Z"/><path class="cls-1" d="M185.05,17.3a4.23,4.23,0,0,0,1.28-.2,3.46,3.46,0,0,0,1.1-.56,3.1,3.1,0,0,0,.79-.93,3.19,3.19,0,0,0,.36-1.28h1.34a4,4,0,0,1-.45,1.67,4.46,4.46,0,0,1-1.06,1.31,5.22,5.22,0,0,1-1.53.86A5.74,5.74,0,0,1,182.7,18,4.81,4.81,0,0,1,181,16.65a5.8,5.8,0,0,1-1-2,8.66,8.66,0,0,1-.35-2.49v-.49A8.66,8.66,0,0,1,180,9.17a5.82,5.82,0,0,1,1-2,4.9,4.9,0,0,1,1.7-1.35A5.37,5.37,0,0,1,185,5.33a5.51,5.51,0,0,1,1.89.32,4.54,4.54,0,0,1,1.52.9,4.35,4.35,0,0,1,1,1.42,4.93,4.93,0,0,1,.43,1.87h-1.34a4,4,0,0,0-.34-1.38,3.18,3.18,0,0,0-.76-1,3.23,3.23,0,0,0-1.1-.66,4.17,4.17,0,0,0-3.19.19A3.57,3.57,0,0,0,182,8.09a4.75,4.75,0,0,0-.69,1.64,8.1,8.1,0,0,0-.22,1.93v.49a8.27,8.27,0,0,0,.22,1.95,4.75,4.75,0,0,0,.69,1.64,3.49,3.49,0,0,0,1.24,1.14A3.82,3.82,0,0,0,185.05,17.3Z"/><path class="cls-1" d="M194.33.53H196l-2.7,3.27h-1.23Zm-.73,17.72h-1.41V5.57h1.41Z"/><path class="cls-1" d="M206.92,12a10.14,10.14,0,0,1-.32,2.61,6.05,6.05,0,0,1-.95,2A4.46,4.46,0,0,1,204.14,18a4.39,4.39,0,0,1-2,.47,5.19,5.19,0,0,1-2.35-.49,4.44,4.44,0,0,1-1.63-1.34v6.47h-1.4V5.57H198l.07,1.79a4.74,4.74,0,0,1,1.63-1.49,4.83,4.83,0,0,1,2.35-.54,4.43,4.43,0,0,1,2.06.46,4.16,4.16,0,0,1,1.53,1.3,6.05,6.05,0,0,1,.95,2,10.45,10.45,0,0,1,.32,2.67Zm-1.41-.25a8.44,8.44,0,0,0-.23-2.06,5.15,5.15,0,0,0-.69-1.67A3.32,3.32,0,0,0,203.42,7a3.37,3.37,0,0,0-1.68-.41,4.26,4.26,0,0,0-1.35.2,3.52,3.52,0,0,0-1,.53,3.26,3.26,0,0,0-.75.78,4.38,4.38,0,0,0-.51.92v6.08a3.89,3.89,0,0,0,.55.89,3.82,3.82,0,0,0,.79.71,4,4,0,0,0,1,.47,4.74,4.74,0,0,0,1.29.17,3.31,3.31,0,0,0,1.67-.41,3.42,3.42,0,0,0,1.16-1.11,5.15,5.15,0,0,0,.69-1.67,8.53,8.53,0,0,0,.23-2.07Z"/><path class="cls-1" d="M209.27,1.9a1,1,0,0,1,.26-.68.91.91,0,0,1,.7-.27,1,1,0,0,1,.71.27.93.93,0,0,1,.26.68.91.91,0,0,1-.26.67,1,1,0,0,1-.71.27.91.91,0,0,1-.7-.27A1,1,0,0,1,209.27,1.9Zm1.65,16.35h-1.4V5.57h1.4Z"/><path class="cls-1" d="M213.29,11.72a7.85,7.85,0,0,1,.4-2.56,6.13,6.13,0,0,1,1.14-2,5.44,5.44,0,0,1,1.78-1.33,5.5,5.5,0,0,1,2.32-.48,5.58,5.58,0,0,1,2.35.48,5.27,5.27,0,0,1,1.79,1.33,6.13,6.13,0,0,1,1.14,2,8.13,8.13,0,0,1,.4,2.56v.39a8,8,0,0,1-.4,2.55,6,6,0,0,1-1.14,2A5.11,5.11,0,0,1,221.29,18a6,6,0,0,1-4.66,0,5.15,5.15,0,0,1-1.79-1.33,5.89,5.89,0,0,1-1.15-2,7.75,7.75,0,0,1-.4-2.55Zm1.4.39a7.18,7.18,0,0,0,.28,2,5.1,5.1,0,0,0,.82,1.65,4.1,4.1,0,0,0,1.34,1.14,3.86,3.86,0,0,0,1.83.42,3.82,3.82,0,0,0,1.82-.42,4.06,4.06,0,0,0,1.33-1.14,5.1,5.1,0,0,0,.82-1.65,6.82,6.82,0,0,0,.28-2v-.39a6.68,6.68,0,0,0-.28-2,5.16,5.16,0,0,0-.82-1.66A4,4,0,0,0,220.77,7a3.82,3.82,0,0,0-1.84-.43,3.7,3.7,0,0,0-1.81.43,4,4,0,0,0-1.33,1.14A5.16,5.16,0,0,0,215,9.76a7,7,0,0,0-.28,2Z"/><path class="cls-1" d="M231.43,11.79a9.61,9.61,0,0,1,.34-2.67,6.28,6.28,0,0,1,1-2,4.33,4.33,0,0,1,3.59-1.76,4.64,4.64,0,0,1,2.31.54,4.56,4.56,0,0,1,1.6,1.49V.25h1.4v18h-1.31l-.06-1.69A4.55,4.55,0,0,1,238.66,18a5.06,5.06,0,0,1-2.35.51,4.37,4.37,0,0,1-2-.47,4.65,4.65,0,0,1-1.54-1.33,6.28,6.28,0,0,1-1-2,9.32,9.32,0,0,1-.34-2.61Zm1.42.25a8.92,8.92,0,0,0,.22,2.06,5.31,5.31,0,0,0,.68,1.66,3.29,3.29,0,0,0,1.16,1.1,3.2,3.2,0,0,0,1.65.4,4.4,4.4,0,0,0,1.3-.17,3.41,3.41,0,0,0,1.81-1.2,4.33,4.33,0,0,0,.57-.91V9a5.52,5.52,0,0,0-.51-.92,3.74,3.74,0,0,0-.75-.79,3.5,3.5,0,0,0-1-.55,4,4,0,0,0-1.36-.21,3.24,3.24,0,0,0-2.84,1.51,5.37,5.37,0,0,0-.68,1.67,9,9,0,0,0-.22,2.06Z"/><path class="cls-1" d="M249.57,18.48a5.58,5.58,0,0,1-2.29-.46,5.51,5.51,0,0,1-1.8-1.29,6,6,0,0,1-1.17-2,6.94,6.94,0,0,1-.43-2.5v-.5a7.69,7.69,0,0,1,.44-2.66,6.44,6.44,0,0,1,1.19-2,5.41,5.41,0,0,1,1.73-1.29,4.74,4.74,0,0,1,2.07-.46,5,5,0,0,1,2.14.44A4.37,4.37,0,0,1,253,7a5.3,5.3,0,0,1,1,1.84,7.86,7.86,0,0,1,.33,2.33V12h-9.05v.27a6,6,0,0,0,.31,2,4.89,4.89,0,0,0,.9,1.6,4.08,4.08,0,0,0,1.37,1.07,3.84,3.84,0,0,0,1.77.4,4.58,4.58,0,0,0,2-.41,4.39,4.39,0,0,0,1.57-1.32l.88.67a6.08,6.08,0,0,1-.74.87,4.35,4.35,0,0,1-1,.71,4.65,4.65,0,0,1-1.25.48A6.08,6.08,0,0,1,249.57,18.48Zm-.26-11.95a3.66,3.66,0,0,0-1.48.3,3.77,3.77,0,0,0-1.2.87,4.5,4.5,0,0,0-.85,1.35,6,6,0,0,0-.45,1.75h7.6v-.15a5.35,5.35,0,0,0-.26-1.54A4.14,4.14,0,0,0,252,7.79a3.46,3.46,0,0,0-1.12-.92A3.38,3.38,0,0,0,249.31,6.53Z"/><path class="cls-1" d="M268.25,11.14h-5v7.11h-1.45V1.18h5.54a8.17,8.17,0,0,1,2.41.33,5,5,0,0,1,1.83,1,4.24,4.24,0,0,1,1.16,1.57,5.44,5.44,0,0,1,.4,2.16,4.9,4.9,0,0,1-.25,1.59,5,5,0,0,1-.73,1.34,4.79,4.79,0,0,1-1.12,1,5.36,5.36,0,0,1-1.43.67l4.26,7.25v.16h-1.53Zm-5-1.23h4.42a4.68,4.68,0,0,0,1.75-.3,3.53,3.53,0,0,0,1.26-.82,3.2,3.2,0,0,0,.76-1.18,3.9,3.9,0,0,0,.25-1.4,4.19,4.19,0,0,0-.28-1.58,3.18,3.18,0,0,0-.84-1.2,3.8,3.8,0,0,0-1.36-.75,5.9,5.9,0,0,0-1.87-.27h-4.09Z"/><path class="cls-1" d="M276,1.9a.93.93,0,0,1,.26-.68A.91.91,0,0,1,277,1a1,1,0,0,1,.71.27,1,1,0,0,1,.26.68,1,1,0,0,1-.26.67,1,1,0,0,1-.71.27.91.91,0,0,1-1-.94Zm1.65,16.35h-1.41V5.57h1.41Z"/><path class="cls-1" d="M280,11.72a7.85,7.85,0,0,1,.41-2.56,6.13,6.13,0,0,1,1.14-2,5.33,5.33,0,0,1,1.78-1.33,5.5,5.5,0,0,1,2.32-.48,5.58,5.58,0,0,1,2.35.48,5.27,5.27,0,0,1,1.79,1.33,6.13,6.13,0,0,1,1.14,2,8.13,8.13,0,0,1,.39,2.56v.39a8,8,0,0,1-.39,2.55,6,6,0,0,1-1.14,2A5.2,5.2,0,0,1,288.05,18a6,6,0,0,1-4.67,0,5.2,5.2,0,0,1-1.78-1.33,5.89,5.89,0,0,1-1.15-2,7.75,7.75,0,0,1-.41-2.55Zm1.41.39a6.82,6.82,0,0,0,.28,2,5.1,5.1,0,0,0,.82,1.65,4.1,4.1,0,0,0,1.34,1.14,4.18,4.18,0,0,0,3.65,0,4.06,4.06,0,0,0,1.33-1.14,5.1,5.1,0,0,0,.82-1.65,6.82,6.82,0,0,0,.28-2v-.39a6.68,6.68,0,0,0-.28-2,5.16,5.16,0,0,0-.82-1.66A4,4,0,0,0,287.53,7a3.82,3.82,0,0,0-1.84-.43,3.7,3.7,0,0,0-1.81.43,4,4,0,0,0-1.33,1.14,5.16,5.16,0,0,0-.82,1.66,6.68,6.68,0,0,0-.28,2Z"/><path class="cls-1" d="M311.16,12.93a7.6,7.6,0,0,1-.61,2.33A5.06,5.06,0,0,1,309.29,17a5.33,5.33,0,0,1-1.9,1.1,7.79,7.79,0,0,1-2.51.38,6.15,6.15,0,0,1-2.64-.55,5.94,5.94,0,0,1-2-1.56,7.39,7.39,0,0,1-1.3-2.44,10.31,10.31,0,0,1-.45-3.14V8.65a10.42,10.42,0,0,1,.45-3.15,7.08,7.08,0,0,1,1.31-2.43,5.87,5.87,0,0,1,2.06-1.56A6.21,6.21,0,0,1,305,1a7.46,7.46,0,0,1,2.45.37,5.2,5.2,0,0,1,1.87,1.1,5.53,5.53,0,0,1,1.26,1.76,7.57,7.57,0,0,1,.6,2.35h-1.45a7.47,7.47,0,0,0-.47-1.85,3.89,3.89,0,0,0-.92-1.36,4,4,0,0,0-1.41-.85A5.89,5.89,0,0,0,305,2.18a4.76,4.76,0,0,0-2.13.46A4.66,4.66,0,0,0,301.26,4a5.93,5.93,0,0,0-1,2,9.55,9.55,0,0,0-.35,2.65v2.16a9.69,9.69,0,0,0,.33,2.6,6.27,6.27,0,0,0,1,2,4.47,4.47,0,0,0,1.56,1.34,4.54,4.54,0,0,0,2.12.48,4.81,4.81,0,0,0,3.41-1.08,5.23,5.23,0,0,0,1.42-3.25Z"/><path class="cls-1" d="M315.23,18.25h-1.4V.25h1.4Z"/><path class="cls-1" d="M326.38,18.25a4.41,4.41,0,0,1-.19-.81c0-.31-.07-.64-.08-1a6,6,0,0,1-.75.77,5.14,5.14,0,0,1-1,.63,5.88,5.88,0,0,1-1.18.44,5.66,5.66,0,0,1-1.4.16,5,5,0,0,1-1.68-.27,3.91,3.91,0,0,1-1.29-.75,3.46,3.46,0,0,1-.82-1.15,3.36,3.36,0,0,1-.3-1.43,3.58,3.58,0,0,1,.4-1.67A3.63,3.63,0,0,1,319.26,12a5.52,5.52,0,0,1,1.82-.8,9.93,9.93,0,0,1,2.41-.27h2.6V9.43a2.82,2.82,0,0,0-.83-2.14,3.53,3.53,0,0,0-2.45-.77,4.56,4.56,0,0,0-1.36.19,3.51,3.51,0,0,0-1.07.56,2.56,2.56,0,0,0-.7.81,2,2,0,0,0-.25,1H318a3,3,0,0,1,.35-1.38,3.87,3.87,0,0,1,1-1.19,5.05,5.05,0,0,1,1.54-.84,5.92,5.92,0,0,1,2-.32,6.48,6.48,0,0,1,1.86.26,4.08,4.08,0,0,1,1.46.77,3.61,3.61,0,0,1,.95,1.29,4.43,4.43,0,0,1,.34,1.81V15.6c0,.22,0,.44,0,.68s0,.46.08.68a5.67,5.67,0,0,0,.12.62,3,3,0,0,0,.17.53v.14Zm-4.41-1a4.85,4.85,0,0,0,1.41-.2,4.21,4.21,0,0,0,1.18-.53,4.08,4.08,0,0,0,.91-.79,3.77,3.77,0,0,0,.62-1V12h-2.4a8.67,8.67,0,0,0-1.93.2,4.79,4.79,0,0,0-1.43.55,2.74,2.74,0,0,0-.9.89,2.24,2.24,0,0,0-.31,1.18,2.39,2.39,0,0,0,.2,1,2.31,2.31,0,0,0,.57.79,2.48,2.48,0,0,0,.9.52A3.36,3.36,0,0,0,322,17.24Z"/><path class="cls-1" d="M336.41,6.76a5.61,5.61,0,0,0-1-.08,3.79,3.79,0,0,0-1.29.21,3.27,3.27,0,0,0-1,.59,3.78,3.78,0,0,0-.74.9A5.22,5.22,0,0,0,332,9.54v8.71h-1.4V5.57h1.37l0,2a4.16,4.16,0,0,1,1.4-1.64,3.7,3.7,0,0,1,2.17-.61,3.27,3.27,0,0,1,.53,0,2.53,2.53,0,0,1,.4.1Z"/><path class="cls-1" d="M337,11.72a7.85,7.85,0,0,1,.4-2.56,6,6,0,0,1,1.15-2,5.24,5.24,0,0,1,1.78-1.33,5.47,5.47,0,0,1,2.32-.48,5.61,5.61,0,0,1,2.35.48,5.24,5.24,0,0,1,1.78,1.33,6,6,0,0,1,1.14,2,7.85,7.85,0,0,1,.4,2.56v.39a7.75,7.75,0,0,1-.4,2.55,5.87,5.87,0,0,1-1.14,2A5.11,5.11,0,0,1,345,18a6,6,0,0,1-4.66,0,5.24,5.24,0,0,1-1.79-1.33,5.89,5.89,0,0,1-1.15-2,7.75,7.75,0,0,1-.4-2.55Zm1.4.39a6.82,6.82,0,0,0,.29,2,4.91,4.91,0,0,0,.82,1.65,4.06,4.06,0,0,0,1.33,1.14,3.86,3.86,0,0,0,1.83.42,3.79,3.79,0,0,0,1.82-.42,4.06,4.06,0,0,0,1.33-1.14,4.91,4.91,0,0,0,.82-1.65,6.82,6.82,0,0,0,.28-2v-.39a6.68,6.68,0,0,0-.28-2,5,5,0,0,0-.82-1.66A3.89,3.89,0,0,0,344.43,7a3.78,3.78,0,0,0-1.83-.43,3.67,3.67,0,0,0-1.81.43,4,4,0,0,0-1.33,1.14,5,5,0,0,0-.82,1.66,6.69,6.69,0,0,0-.29,2Z"/><path class="cls-1" d="M38.71,50.28a3,3,0,0,0-.18-1.07,2.07,2.07,0,0,0-.66-.89,6.11,6.11,0,0,0-1.36-.79,20.93,20.93,0,0,0-2.24-.83,27,27,0,0,1-3-1.13A10.47,10.47,0,0,1,28.9,44.1a6.63,6.63,0,0,1-1.64-2,5.4,5.4,0,0,1-.6-2.6,5.57,5.57,0,0,1,.62-2.6,6,6,0,0,1,1.73-2,8.67,8.67,0,0,1,2.66-1.29,12,12,0,0,1,3.38-.46,10.66,10.66,0,0,1,3.44.53,7.84,7.84,0,0,1,2.64,1.46,6.53,6.53,0,0,1,1.69,2.22,6.75,6.75,0,0,1,.59,2.82H38.72a3.77,3.77,0,0,0-.22-1.32,2.81,2.81,0,0,0-.7-1,3.2,3.2,0,0,0-1.17-.68A5.15,5.15,0,0,0,35,36.92a5.83,5.83,0,0,0-1.6.2,3.27,3.27,0,0,0-1.12.56,2.33,2.33,0,0,0-.9,1.88,2.2,2.2,0,0,0,1.15,1.88,12.71,12.71,0,0,0,3.36,1.42,21.81,21.81,0,0,1,3.28,1.28,9.92,9.92,0,0,1,2.36,1.59,6,6,0,0,1,1.42,2,6.13,6.13,0,0,1,.49,2.52,5.89,5.89,0,0,1-.59,2.67,5.43,5.43,0,0,1-1.66,2,7.94,7.94,0,0,1-2.6,1.24,12.4,12.4,0,0,1-3.4.43,13.16,13.16,0,0,1-2.25-.2,10.84,10.84,0,0,1-2.15-.6,9.86,9.86,0,0,1-1.9-1,7.17,7.17,0,0,1-1.52-1.44,6.68,6.68,0,0,1-1-1.88A7.27,7.27,0,0,1,26,49.09h4.7A4.17,4.17,0,0,0,31,50.84,2.93,2.93,0,0,0,31.9,52a3.64,3.64,0,0,0,1.42.65,7.44,7.44,0,0,0,1.84.21,5.73,5.73,0,0,0,1.58-.2,3.28,3.28,0,0,0,1.11-.54,2.23,2.23,0,0,0,.65-.82A2.52,2.52,0,0,0,38.71,50.28Z"/><path class="cls-1" d="M54.07,56.56a9.33,9.33,0,0,1-3.53-.64,8,8,0,0,1-2.64-1.75,7.59,7.59,0,0,1-1.65-2.6,8.91,8.91,0,0,1-.58-3.2v-.61a10.69,10.69,0,0,1,.56-3.52,8.14,8.14,0,0,1,1.58-2.76,7.11,7.11,0,0,1,2.48-1.8A7.91,7.91,0,0,1,53.57,39a8,8,0,0,1,3.21.6,6.35,6.35,0,0,1,2.34,1.69,7.15,7.15,0,0,1,1.42,2.61A11.42,11.42,0,0,1,61,47.34v1.92H50.25a4.77,4.77,0,0,0,.45,1.5,3.81,3.81,0,0,0,.86,1.15,3.7,3.7,0,0,0,1.22.74,4.4,4.4,0,0,0,1.58.27,5.66,5.66,0,0,0,2.28-.46A4.67,4.67,0,0,0,58.44,51l2.22,2.48a6.77,6.77,0,0,1-2.45,2.1,8.43,8.43,0,0,1-1.87.69A9.5,9.5,0,0,1,54.07,56.56Zm-.52-13.88a3.06,3.06,0,0,0-1.29.26,2.69,2.69,0,0,0-.95.72,3.72,3.72,0,0,0-.65,1.1,6,6,0,0,0-.36,1.42h6.28v-.36a4.6,4.6,0,0,0-.19-1.25,3,3,0,0,0-.55-1,2.44,2.44,0,0,0-.94-.65A3.46,3.46,0,0,0,53.55,42.68Z"/><path class="cls-1" d="M70.61,52.92a3.41,3.41,0,0,0,1.14-.18,2.59,2.59,0,0,0,.89-.51,2.31,2.31,0,0,0,.59-.79,2.65,2.65,0,0,0,.23-1h4.23a5.86,5.86,0,0,1-.56,2.48,6.07,6.07,0,0,1-1.49,1.95,6.79,6.79,0,0,1-2.21,1.28,8.89,8.89,0,0,1-6.18-.22,6.63,6.63,0,0,1-2.43-1.81,7.65,7.65,0,0,1-1.46-2.7A11.3,11.3,0,0,1,62.88,48v-.44a11.37,11.37,0,0,1,.48-3.36,7.83,7.83,0,0,1,1.46-2.72,6.65,6.65,0,0,1,2.43-1.82A8.2,8.2,0,0,1,70.66,39a8.35,8.35,0,0,1,2.85.46,6.35,6.35,0,0,1,2.21,1.32,5.88,5.88,0,0,1,1.44,2.08,7.32,7.32,0,0,1,.53,2.75H73.46a3.61,3.61,0,0,0-.21-1.15,2.86,2.86,0,0,0-.56-.94,2.61,2.61,0,0,0-.89-.63,3.3,3.3,0,0,0-2.83.17,2.7,2.7,0,0,0-1,1.09,4.59,4.59,0,0,0-.48,1.57,13.74,13.74,0,0,0-.13,1.84V48a14,14,0,0,0,.13,1.86A4.6,4.6,0,0,0,68,51.45a2.71,2.71,0,0,0,1,1.07A3,3,0,0,0,70.61,52.92Z"/><path class="cls-1" d="M89.77,43.57c-.23,0-.5-.06-.81-.08s-.58,0-.82,0a4.54,4.54,0,0,0-2.14.44,2.77,2.77,0,0,0-1.22,1.29V56.25H80.27V39.34h4.26l.13,2a5.16,5.16,0,0,1,1.58-1.72A3.87,3.87,0,0,1,88.42,39a5.06,5.06,0,0,1,.76.06,4.73,4.73,0,0,1,.65.14Z"/><path class="cls-1" d="M99.42,56.56a9.32,9.32,0,0,1-3.52-.64,7.86,7.86,0,0,1-2.64-1.75,7.61,7.61,0,0,1-1.66-2.6,8.91,8.91,0,0,1-.57-3.2v-.61a10.69,10.69,0,0,1,.56-3.52,8,8,0,0,1,1.58-2.76,7.11,7.11,0,0,1,2.48-1.8A7.89,7.89,0,0,1,98.92,39a8,8,0,0,1,3.22.6,6.35,6.35,0,0,1,2.34,1.69,7.15,7.15,0,0,1,1.42,2.61,11.42,11.42,0,0,1,.48,3.41v1.92H95.61a4.77,4.77,0,0,0,.45,1.5,3.81,3.81,0,0,0,.86,1.15,3.6,3.6,0,0,0,1.22.74,4.4,4.4,0,0,0,1.58.27,5.73,5.73,0,0,0,2.28-.46A4.67,4.67,0,0,0,103.8,51L106,53.51a6.77,6.77,0,0,1-2.45,2.1,8.43,8.43,0,0,1-1.87.69A9.52,9.52,0,0,1,99.42,56.56Zm-.51-13.88a3.06,3.06,0,0,0-1.29.26,2.69,2.69,0,0,0-1,.72,3.72,3.72,0,0,0-.65,1.1,6,6,0,0,0-.36,1.42h6.28v-.36a4.6,4.6,0,0,0-.19-1.25,3,3,0,0,0-.55-1,2.44,2.44,0,0,0-.94-.65A3.46,3.46,0,0,0,98.91,42.68Z"/><path class="cls-1" d="M114.35,35.18v4.16h2.89v3.31h-2.89v8.44a2.67,2.67,0,0,0,.11.87,1.2,1.2,0,0,0,.32.54,1.25,1.25,0,0,0,.54.27,3.45,3.45,0,0,0,.76.07c.27,0,.52,0,.74,0s.42-.05.59-.08v3.42a9.68,9.68,0,0,1-1.23.29,8.48,8.48,0,0,1-1.51.12,7,7,0,0,1-2-.27,4,4,0,0,1-1.52-.87,3.93,3.93,0,0,1-1-1.55,7,7,0,0,1-.34-2.3V42.65h-2.47V39.34h2.47V35.18Z"/><path class="cls-1" d="M129.55,56.25a5,5,0,0,1-.45-1.52,6.09,6.09,0,0,1-1.73,1.3,5.58,5.58,0,0,1-2.54.53,6.72,6.72,0,0,1-2.27-.38,5.75,5.75,0,0,1-1.83-1,4.74,4.74,0,0,1-1.65-3.64,5.5,5.5,0,0,1,.49-2.36,4.59,4.59,0,0,1,1.48-1.75,7.1,7.1,0,0,1,2.45-1.1,13.68,13.68,0,0,1,3.39-.37h2V45a2.81,2.81,0,0,0-.6-1.88,2.4,2.4,0,0,0-1.9-.7,2.66,2.66,0,0,0-1.79.55,1.85,1.85,0,0,0-.65,1.5h-4.51a4.59,4.59,0,0,1,.5-2.08,5.15,5.15,0,0,1,1.45-1.72,7.09,7.09,0,0,1,2.26-1.16,9.55,9.55,0,0,1,3-.43,9.42,9.42,0,0,1,2.72.37,6.24,6.24,0,0,1,2.16,1.12,5.05,5.05,0,0,1,1.41,1.86,6.19,6.19,0,0,1,.51,2.6v7.16c0,.48,0,.91.05,1.29s.07.72.12,1a4.79,4.79,0,0,0,.21.83,5.28,5.28,0,0,0,.29.69v.27Zm-3.73-3.14a3.69,3.69,0,0,0,1.07-.15,3.86,3.86,0,0,0,.88-.36,3,3,0,0,0,.68-.53,2.88,2.88,0,0,0,.46-.61v-2.9h-1.86a5.52,5.52,0,0,0-1.55.19,3.23,3.23,0,0,0-1.08.55,2.27,2.27,0,0,0-.62.83,2.54,2.54,0,0,0-.2,1,1.8,1.8,0,0,0,.59,1.39A2.34,2.34,0,0,0,125.82,53.11Z"/><path class="cls-1" d="M146.41,43.57c-.23,0-.5-.06-.81-.08s-.58,0-.82,0a4.54,4.54,0,0,0-2.14.44,2.82,2.82,0,0,0-1.22,1.29V56.25h-4.51V39.34h4.26l.13,2a5.16,5.16,0,0,1,1.58-1.72,3.88,3.88,0,0,1,2.19-.61,5,5,0,0,1,.75.06,4.73,4.73,0,0,1,.65.14Z"/><path class="cls-1" d="M148.55,35a2.25,2.25,0,0,1,.68-1.67,2.58,2.58,0,0,1,1.85-.65,2.89,2.89,0,0,1,1,.17,2.1,2.1,0,0,1,.79.48,2.17,2.17,0,0,1,.51.75,2.32,2.32,0,0,1,.18.92,2.44,2.44,0,0,1-.18.95,2.13,2.13,0,0,1-.51.74,2.25,2.25,0,0,1-.79.49,3.12,3.12,0,0,1-1,.17,3.21,3.21,0,0,1-1.05-.17,2.35,2.35,0,0,1-.79-.49,2.13,2.13,0,0,1-.51-.74A2.44,2.44,0,0,1,148.55,35Zm4.8,21.29h-4.53V39.34h4.53Z"/><path class="cls-1" d="M166.86,56.25a5,5,0,0,1-.45-1.52,6,6,0,0,1-1.73,1.3,5.58,5.58,0,0,1-2.54.53,6.72,6.72,0,0,1-2.27-.38,5.86,5.86,0,0,1-1.83-1,4.88,4.88,0,0,1-1.21-1.6,4.76,4.76,0,0,1-.44-2,5.35,5.35,0,0,1,.5-2.36,4.56,4.56,0,0,1,1.47-1.75,7.1,7.1,0,0,1,2.45-1.1,13.71,13.71,0,0,1,3.4-.37h2V45a2.81,2.81,0,0,0-.6-1.88,2.39,2.39,0,0,0-1.9-.7,2.68,2.68,0,0,0-1.79.55,1.85,1.85,0,0,0-.65,1.5h-4.51a4.47,4.47,0,0,1,.51-2.08,5.24,5.24,0,0,1,1.44-1.72A7.14,7.14,0,0,1,161,39.46a9.47,9.47,0,0,1,3-.43,9.35,9.35,0,0,1,2.71.37,6.15,6.15,0,0,1,2.16,1.12,5,5,0,0,1,1.42,1.86,6.35,6.35,0,0,1,.5,2.6v7.16c0,.48,0,.91.05,1.29s.07.72.12,1a5.91,5.91,0,0,0,.21.83,5.28,5.28,0,0,0,.29.69v.27Zm-3.73-3.14a4.09,4.09,0,0,0,2-.51,3,3,0,0,0,.68-.53,2.57,2.57,0,0,0,.46-.61v-2.9h-1.86a5.4,5.4,0,0,0-1.54.19,3,3,0,0,0-1.08.55,2.29,2.29,0,0,0-.63.83,2.71,2.71,0,0,0-.2,1,1.84,1.84,0,0,0,.59,1.39A2.34,2.34,0,0,0,163.13,53.11Z"/><path class="cls-1" d="M188.61,33.5,194.46,50l5.81-16.5h6.15V56.25h-4.7V50l.47-10.74-6.14,17h-3.22l-6.12-16.94L187.17,50v6.22h-4.68V33.5Z"/><path class="cls-1" d="M220.35,54.53a5.6,5.6,0,0,1-1.94,1.5,6.39,6.39,0,0,1-2.69.53,7.17,7.17,0,0,1-2.28-.35,4.52,4.52,0,0,1-1.77-1.11,5,5,0,0,1-1.15-2,8.91,8.91,0,0,1-.41-2.86V39.34h4.52v11a3.53,3.53,0,0,0,.18,1.2,2,2,0,0,0,.5.81,1.86,1.86,0,0,0,.76.44,2.93,2.93,0,0,0,1,.14,4.11,4.11,0,0,0,2-.42,2.87,2.87,0,0,0,1.17-1.17v-12h4.53V56.25h-4.25Z"/><path class="cls-1" d="M232.28,39.34l.14,1.95a6,6,0,0,1,2.11-1.68,6.36,6.36,0,0,1,2.75-.58,6.81,6.81,0,0,1,2.19.33,4.17,4.17,0,0,1,1.69,1.1,5.32,5.32,0,0,1,1.09,2,10.63,10.63,0,0,1,.38,3V56.25h-4.52V45.46a4.26,4.26,0,0,0-.18-1.34,2,2,0,0,0-.52-.84,2,2,0,0,0-.84-.45,4.52,4.52,0,0,0-1.16-.13,3.2,3.2,0,0,0-1.71.44,3.25,3.25,0,0,0-1.15,1.18V56.25H228V39.34Z"/><path class="cls-1" d="M246,35a2.25,2.25,0,0,1,.68-1.67,2.58,2.58,0,0,1,1.85-.65,2.93,2.93,0,0,1,1,.17A2.16,2.16,0,0,1,250.9,34a2.32,2.32,0,0,1,.18.92,2.44,2.44,0,0,1-.18.95,2.13,2.13,0,0,1-.51.74,2.35,2.35,0,0,1-.79.49,3.33,3.33,0,0,1-2.1,0,2.25,2.25,0,0,1-.79-.49,2.13,2.13,0,0,1-.51-.74A2.44,2.44,0,0,1,246,35Zm4.8,21.29h-4.54V39.34h4.54Z"/><path class="cls-1" d="M261.57,52.92a3.49,3.49,0,0,0,1.14-.18,2.69,2.69,0,0,0,.89-.51,2.28,2.28,0,0,0,.58-.79,2.65,2.65,0,0,0,.23-1h4.23a5.71,5.71,0,0,1-.56,2.48,6,6,0,0,1-1.48,1.95,7,7,0,0,1-2.21,1.28,8.22,8.22,0,0,1-2.75.45,8.14,8.14,0,0,1-3.43-.67,6.66,6.66,0,0,1-2.44-1.81,7.47,7.47,0,0,1-1.45-2.7,11,11,0,0,1-.49-3.35v-.44a11.05,11.05,0,0,1,.49-3.36,7.65,7.65,0,0,1,1.45-2.72,6.65,6.65,0,0,1,2.43-1.82,8.2,8.2,0,0,1,3.41-.66,8.35,8.35,0,0,1,2.85.46,6.35,6.35,0,0,1,2.21,1.32,5.88,5.88,0,0,1,1.44,2.08,7.13,7.13,0,0,1,.53,2.75h-4.23a3.61,3.61,0,0,0-.21-1.15,2.86,2.86,0,0,0-.56-.94,2.52,2.52,0,0,0-.89-.63,3.3,3.3,0,0,0-2.83.17,2.77,2.77,0,0,0-1,1.09,4.59,4.59,0,0,0-.48,1.57,13.76,13.76,0,0,0-.12,1.84V48a14.06,14.06,0,0,0,.12,1.86,4.6,4.6,0,0,0,.48,1.56,2.78,2.78,0,0,0,1,1.07A3,3,0,0,0,261.57,52.92Z"/><path class="cls-1" d="M271.19,35a2.25,2.25,0,0,1,.68-1.67,2.58,2.58,0,0,1,1.85-.65,2.89,2.89,0,0,1,1,.17,2.22,2.22,0,0,1,.8.48,2.29,2.29,0,0,1,.5.75,2.32,2.32,0,0,1,.18.92,2.44,2.44,0,0,1-.18.95,2.25,2.25,0,0,1-.5.74,2.39,2.39,0,0,1-.8.49,3.12,3.12,0,0,1-1,.17,3.21,3.21,0,0,1-1.05-.17,2.35,2.35,0,0,1-.79-.49,2.13,2.13,0,0,1-.51-.74A2.44,2.44,0,0,1,271.19,35ZM276,56.25h-4.53V39.34H276Z"/><path class="cls-1" d="M294.92,48a13.24,13.24,0,0,1-.42,3.42,8.58,8.58,0,0,1-1.26,2.73,6,6,0,0,1-2.06,1.8,5.84,5.84,0,0,1-2.82.66,5.65,5.65,0,0,1-2.36-.47,5.24,5.24,0,0,1-1.78-1.31v8h-4.51V39.34h4.18l.16,1.66a5.65,5.65,0,0,1,1.82-1.46,5.51,5.51,0,0,1,2.46-.51,6.28,6.28,0,0,1,2.84.61,5.74,5.74,0,0,1,2.07,1.75,8.43,8.43,0,0,1,1.26,2.72,13.73,13.73,0,0,1,.42,3.51Zm-4.51-.33a9.84,9.84,0,0,0-.18-1.94,5.11,5.11,0,0,0-.57-1.57,3,3,0,0,0-1-1,2.84,2.84,0,0,0-1.51-.37,3.66,3.66,0,0,0-1.82.41,2.81,2.81,0,0,0-1.1,1.21v6.93a3,3,0,0,0,1.1,1.22,3.42,3.42,0,0,0,1.85.45,2.76,2.76,0,0,0,1.51-.39,2.94,2.94,0,0,0,1-1.07,5.23,5.23,0,0,0,.56-1.59,10.63,10.63,0,0,0,.17-1.92Z"/><path class="cls-1" d="M307.52,56.25a5,5,0,0,1-.45-1.52,6.09,6.09,0,0,1-1.73,1.3,5.58,5.58,0,0,1-2.54.53,6.72,6.72,0,0,1-2.27-.38,5.64,5.64,0,0,1-1.83-1,4.74,4.74,0,0,1-1.65-3.64,5.35,5.35,0,0,1,.49-2.36A4.59,4.59,0,0,1,299,47.39a7,7,0,0,1,2.44-1.1,13.82,13.82,0,0,1,3.4-.37h2V45a2.81,2.81,0,0,0-.6-1.88,2.4,2.4,0,0,0-1.9-.7,2.66,2.66,0,0,0-1.79.55,1.85,1.85,0,0,0-.65,1.5h-4.52a4.47,4.47,0,0,1,.51-2.08,5.15,5.15,0,0,1,1.45-1.72,7.09,7.09,0,0,1,2.26-1.16,9.55,9.55,0,0,1,3-.43,9.42,9.42,0,0,1,2.72.37,6.33,6.33,0,0,1,2.16,1.12,5.05,5.05,0,0,1,1.41,1.86,6.19,6.19,0,0,1,.51,2.6v7.16a12.64,12.64,0,0,0,0,1.29c0,.38.07.72.12,1a5.94,5.94,0,0,0,.2.83,7.17,7.17,0,0,0,.3.69v.27Zm-3.74-3.14a3.59,3.59,0,0,0,1.07-.15,3.76,3.76,0,0,0,.89-.36,3.26,3.26,0,0,0,.68-.53,2.88,2.88,0,0,0,.46-.61v-2.9H305a5.48,5.48,0,0,0-1.55.19,3,3,0,0,0-1.08.55,2.16,2.16,0,0,0-.62.83,2.54,2.54,0,0,0-.2,1,1.8,1.8,0,0,0,.59,1.39A2.32,2.32,0,0,0,303.78,53.11Z"/><path class="cls-1" d="M319.64,56.25h-4.53v-24h4.53Z"/><path class="cls-1" d="M82.92,79.67a12.94,12.94,0,0,1,.45-3.52,8.42,8.42,0,0,1,1.29-2.73,5.81,5.81,0,0,1,2.08-1.77A6.21,6.21,0,0,1,89.55,71a5.29,5.29,0,0,1,2.3.48,5.46,5.46,0,0,1,1.78,1.36V64.25h4.53v24H94.08l-.22-1.8A5.72,5.72,0,0,1,92,88a5.27,5.27,0,0,1-2.48.56,5.92,5.92,0,0,1-2.79-.65,6,6,0,0,1-2.07-1.79,8.41,8.41,0,0,1-1.29-2.71A12.34,12.34,0,0,1,82.92,80Zm4.52.33a10.63,10.63,0,0,0,.17,1.92,5,5,0,0,0,.56,1.55,2.88,2.88,0,0,0,1,1,2.74,2.74,0,0,0,1.5.38,3.28,3.28,0,0,0,1.83-.47,3.16,3.16,0,0,0,1.13-1.29V76.46a3.13,3.13,0,0,0-1.13-1.3,3.29,3.29,0,0,0-1.79-.46,2.9,2.9,0,0,0-1.52.38,2.94,2.94,0,0,0-1,1.06,5.28,5.28,0,0,0-.56,1.57,10.12,10.12,0,0,0-.18,2Z"/><path class="cls-1" d="M109.44,88.56a9.28,9.28,0,0,1-3.52-.64,7.76,7.76,0,0,1-2.64-1.75,7.46,7.46,0,0,1-1.66-2.6,8.91,8.91,0,0,1-.57-3.2v-.61a10.7,10.7,0,0,1,.55-3.52,8.14,8.14,0,0,1,1.58-2.76,7.15,7.15,0,0,1,2.49-1.8,7.83,7.83,0,0,1,3.27-.65,8.08,8.08,0,0,1,3.22.6,6.35,6.35,0,0,1,2.34,1.69,7.15,7.15,0,0,1,1.42,2.61,11.76,11.76,0,0,1,.47,3.41v1.92H105.63a4.76,4.76,0,0,0,.44,1.5,4,4,0,0,0,.86,1.15,3.64,3.64,0,0,0,1.23.74,4.36,4.36,0,0,0,1.58.27,5.73,5.73,0,0,0,2.28-.46,4.67,4.67,0,0,0,1.8-1.43L116,85.51a6.56,6.56,0,0,1-2.45,2.1,8.07,8.07,0,0,1-1.87.69A9.5,9.5,0,0,1,109.44,88.56Zm-.52-13.88a3,3,0,0,0-1.28.26,2.82,2.82,0,0,0-1,.72,4,4,0,0,0-.65,1.1,7.19,7.19,0,0,0-.36,1.42H112v-.36a4.6,4.6,0,0,0-.2-1.25,2.79,2.79,0,0,0-.55-1,2.33,2.33,0,0,0-.93-.65A3.48,3.48,0,0,0,108.92,74.68Z"/><path class="cls-1" d="M140.91,78.39h-9v6.09h10.56v3.77H127.22V65.5h15.22v3.79H131.91v5.42h9Z"/><path class="cls-1" d="M143.92,79.67a12.94,12.94,0,0,1,.45-3.52,8.42,8.42,0,0,1,1.29-2.73,5.81,5.81,0,0,1,2.08-1.77,6.21,6.21,0,0,1,2.81-.62,5.29,5.29,0,0,1,2.3.48,5.46,5.46,0,0,1,1.78,1.36V64.25h4.53v24h-4.08l-.22-1.8A5.72,5.72,0,0,1,153,88a5.27,5.27,0,0,1-2.48.56,5.92,5.92,0,0,1-2.79-.65,6,6,0,0,1-2.07-1.79,8.41,8.41,0,0,1-1.29-2.71,12.34,12.34,0,0,1-.45-3.41Zm4.52.33a10.63,10.63,0,0,0,.17,1.92,5,5,0,0,0,.56,1.55,2.88,2.88,0,0,0,1,1,2.74,2.74,0,0,0,1.5.38,3.28,3.28,0,0,0,1.83-.47,3.16,3.16,0,0,0,1.13-1.29V76.46a3.13,3.13,0,0,0-1.13-1.3,3.29,3.29,0,0,0-1.79-.46,2.9,2.9,0,0,0-1.52.38,2.94,2.94,0,0,0-1,1.06,5.28,5.28,0,0,0-.56,1.57,10.12,10.12,0,0,0-.18,2Z"/><path class="cls-1" d="M172.78,86.53a5.57,5.57,0,0,1-1.93,1.5,6.39,6.39,0,0,1-2.69.53,7.17,7.17,0,0,1-2.28-.35,4.63,4.63,0,0,1-1.78-1.11,5.15,5.15,0,0,1-1.14-2,8.91,8.91,0,0,1-.41-2.86V71.34h4.52v11a3.53,3.53,0,0,0,.18,1.2,2,2,0,0,0,.5.81,1.89,1.89,0,0,0,.75.44,3,3,0,0,0,1,.14,4.14,4.14,0,0,0,2-.42,2.87,2.87,0,0,0,1.17-1.17v-12h4.53V88.25h-4.25Z"/><path class="cls-1" d="M187.6,84.92a3.49,3.49,0,0,0,1.14-.18,2.69,2.69,0,0,0,.89-.51,2.28,2.28,0,0,0,.58-.79,2.65,2.65,0,0,0,.23-1h4.23a5.71,5.71,0,0,1-.56,2.48,6,6,0,0,1-1.48,2,6.89,6.89,0,0,1-2.21,1.28,8.22,8.22,0,0,1-2.75.45,8.14,8.14,0,0,1-3.43-.67,6.75,6.75,0,0,1-2.44-1.81,7.47,7.47,0,0,1-1.45-2.7,11,11,0,0,1-.49-3.35v-.44a11.05,11.05,0,0,1,.49-3.36,7.65,7.65,0,0,1,1.45-2.72,6.82,6.82,0,0,1,2.43-1.82,8.2,8.2,0,0,1,3.41-.66,8.37,8.37,0,0,1,2.86.46,6.54,6.54,0,0,1,2.21,1.32,6,6,0,0,1,1.43,2.08,7.13,7.13,0,0,1,.53,2.75h-4.23a3.61,3.61,0,0,0-.21-1.15,2.86,2.86,0,0,0-.56-.94,2.43,2.43,0,0,0-.89-.63,3.28,3.28,0,0,0-2.82.17,2.72,2.72,0,0,0-1,1.09,5.08,5.08,0,0,0-.48,1.57,13.76,13.76,0,0,0-.12,1.84V80a14.06,14.06,0,0,0,.12,1.86,5.1,5.1,0,0,0,.48,1.56,2.73,2.73,0,0,0,1,1.07A3,3,0,0,0,187.6,84.92Z"/><path class="cls-1" d="M207.05,88.25a5,5,0,0,1-.45-1.52,6.09,6.09,0,0,1-1.73,1.3,5.58,5.58,0,0,1-2.54.53,6.72,6.72,0,0,1-2.27-.38,5.75,5.75,0,0,1-1.83-1,4.74,4.74,0,0,1-1.65-3.64,5.5,5.5,0,0,1,.49-2.36,4.59,4.59,0,0,1,1.48-1.75,7.1,7.1,0,0,1,2.45-1.1,13.68,13.68,0,0,1,3.39-.37h2V77a2.81,2.81,0,0,0-.6-1.88,2.4,2.4,0,0,0-1.9-.7,2.66,2.66,0,0,0-1.79.55,1.85,1.85,0,0,0-.65,1.5H197a4.59,4.59,0,0,1,.5-2.08,5.15,5.15,0,0,1,1.45-1.72,7.09,7.09,0,0,1,2.26-1.16,9.55,9.55,0,0,1,3-.43,9.42,9.42,0,0,1,2.72.37A6.24,6.24,0,0,1,209,72.52a5.05,5.05,0,0,1,1.41,1.86,6.19,6.19,0,0,1,.51,2.6v7.16c0,.48,0,.91.05,1.29s.07.72.12,1a4.79,4.79,0,0,0,.21.83,5.28,5.28,0,0,0,.29.69v.27Zm-3.73-3.14a3.69,3.69,0,0,0,1.07-.15,3.86,3.86,0,0,0,.88-.36,3,3,0,0,0,.68-.53,2.88,2.88,0,0,0,.46-.61v-2.9h-1.86a5.52,5.52,0,0,0-1.55.19,3.23,3.23,0,0,0-1.08.55,2.27,2.27,0,0,0-.62.83,2.54,2.54,0,0,0-.2,1,1.8,1.8,0,0,0,.59,1.39A2.34,2.34,0,0,0,203.32,85.11Z"/><path class="cls-1" d="M221.44,84.92a3.41,3.41,0,0,0,1.14-.18,2.69,2.69,0,0,0,.89-.51,2.31,2.31,0,0,0,.59-.79,2.64,2.64,0,0,0,.22-1h4.24a5.86,5.86,0,0,1-.56,2.48,6.07,6.07,0,0,1-1.49,2,6.79,6.79,0,0,1-2.21,1.28,8.89,8.89,0,0,1-6.18-.22,6.75,6.75,0,0,1-2.44-1.81,7.63,7.63,0,0,1-1.45-2.7,11.3,11.3,0,0,1-.48-3.35v-.44a11.37,11.37,0,0,1,.48-3.36,7.81,7.81,0,0,1,1.45-2.72,6.82,6.82,0,0,1,2.43-1.82,9.13,9.13,0,0,1,6.27-.2,6.35,6.35,0,0,1,2.21,1.32A6.15,6.15,0,0,1,228,74.89a7.32,7.32,0,0,1,.53,2.75h-4.24a3.61,3.61,0,0,0-.21-1.15,2.84,2.84,0,0,0-.55-.94,2.61,2.61,0,0,0-.89-.63,3,3,0,0,0-1.22-.24,2.91,2.91,0,0,0-1.61.41,2.79,2.79,0,0,0-1,1.09,4.82,4.82,0,0,0-.47,1.57,12.26,12.26,0,0,0-.13,1.84V80a12.53,12.53,0,0,0,.13,1.86,4.83,4.83,0,0,0,.47,1.56,2.81,2.81,0,0,0,1,1.07A3,3,0,0,0,221.44,84.92Zm1.64,3.23-.17.91a3.86,3.86,0,0,1,.86.26,2.35,2.35,0,0,1,.75.5,2.38,2.38,0,0,1,.53.79,2.85,2.85,0,0,1,.2,1.15,3.19,3.19,0,0,1-1.39,2.7,4.92,4.92,0,0,1-1.7.75,9.23,9.23,0,0,1-2.36.27l-.11-2.61a2.5,2.5,0,0,0,1.26-.29,1,1,0,0,0,.49-1,.89.89,0,0,0-.52-.9,4.94,4.94,0,0,0-1.7-.32l.49-2.24Z"/><path class="cls-1" d="M240.89,88.25a5.26,5.26,0,0,1-.45-1.52,6,6,0,0,1-1.73,1.3,5.58,5.58,0,0,1-2.54.53,6.72,6.72,0,0,1-2.27-.38,5.86,5.86,0,0,1-1.83-1,4.88,4.88,0,0,1-1.21-1.6,4.76,4.76,0,0,1-.44-2,5.35,5.35,0,0,1,.5-2.36,4.65,4.65,0,0,1,1.47-1.75,7.18,7.18,0,0,1,2.45-1.1,13.77,13.77,0,0,1,3.4-.37h2V77a2.81,2.81,0,0,0-.6-1.88,2.39,2.39,0,0,0-1.9-.7,2.68,2.68,0,0,0-1.79.55,1.85,1.85,0,0,0-.64,1.5H230.8a4.47,4.47,0,0,1,.51-2.08,5.24,5.24,0,0,1,1.44-1.72A7.14,7.14,0,0,1,235,71.46a10.33,10.33,0,0,1,5.69-.06,6.19,6.19,0,0,1,2.15,1.12,5,5,0,0,1,1.42,1.86,6.19,6.19,0,0,1,.5,2.6v7.16c0,.48,0,.91.05,1.29a9.31,9.31,0,0,0,.13,1,5.94,5.94,0,0,0,.2.83,4.23,4.23,0,0,0,.3.69v.27Zm3-23.8a4.83,4.83,0,0,1-.27,1.62,4.25,4.25,0,0,1-.74,1.32,3.63,3.63,0,0,1-1.13.89,3.05,3.05,0,0,1-1.41.33,3.26,3.26,0,0,1-1.28-.22,7.57,7.57,0,0,1-1-.46c-.31-.16-.62-.32-.93-.46a2.67,2.67,0,0,0-1.08-.21,1.24,1.24,0,0,0-.93.39,1.5,1.5,0,0,0-.38,1.11l-2.63-.15a4.77,4.77,0,0,1,.27-1.61,4.23,4.23,0,0,1,.73-1.32,3.51,3.51,0,0,1,1.12-.91,3.06,3.06,0,0,1,1.41-.34,3.15,3.15,0,0,1,1.16.21c.35.15.7.3,1,.46s.67.31,1,.45a2.79,2.79,0,0,0,1.09.21,1.35,1.35,0,0,0,1-.38,1.48,1.48,0,0,0,.4-1.1Zm-6.69,20.66a4.09,4.09,0,0,0,2-.51,3,3,0,0,0,.68-.53,2.57,2.57,0,0,0,.46-.61v-2.9h-1.86a5.4,5.4,0,0,0-1.54.19,3,3,0,0,0-1.08.55,2.29,2.29,0,0,0-.63.83,2.71,2.71,0,0,0-.2,1,1.84,1.84,0,0,0,.59,1.39A2.34,2.34,0,0,0,237.16,85.11Z"/><path class="cls-1" d="M247.55,79.64a10.86,10.86,0,0,1,.53-3.43,7.82,7.82,0,0,1,1.55-2.72,7,7,0,0,1,2.51-1.81,8.44,8.44,0,0,1,3.39-.65,8.6,8.6,0,0,1,3.43.65,7.14,7.14,0,0,1,2.52,1.81A7.67,7.67,0,0,1,263,76.21a10.58,10.58,0,0,1,.54,3.43V80a10.41,10.41,0,0,1-.54,3.43,7.67,7.67,0,0,1-1.55,2.72,7,7,0,0,1-2.51,1.8,8.45,8.45,0,0,1-3.4.65,8.55,8.55,0,0,1-3.42-.65,7,7,0,0,1-2.51-1.8,7.69,7.69,0,0,1-1.56-2.72,10.68,10.68,0,0,1-.53-3.43Zm4.52.32a9.92,9.92,0,0,0,.18,1.94,4.94,4.94,0,0,0,.6,1.57,3.13,3.13,0,0,0,1.08,1.06,3.21,3.21,0,0,0,1.64.39,3,3,0,0,0,2.68-1.45,4.52,4.52,0,0,0,.61-1.57,9.19,9.19,0,0,0,.19-1.94v-.32a8.94,8.94,0,0,0-.19-1.9,4.74,4.74,0,0,0-.61-1.58,3,3,0,0,0-2.72-1.48,3.14,3.14,0,0,0-1.6.4,3.28,3.28,0,0,0-1.08,1.08,5.2,5.2,0,0,0-.6,1.58,9.65,9.65,0,0,0-.18,1.9Z"/></g></g></g></svg>